<svg width="108px" height="105px" viewBox="0 0 108 105" version="1.1" xmlns="http://www.w3.org/2000/svg" xmlns:xlink="http://www.w3.org/1999/xlink">
    <!--  Generator: Sketch 47.1 (45422) - http://www.bohemiancoding.com/sketch  -->
    <desc>Created with Sketch.</desc>
    <defs></defs>
    <g id="Regina" stroke="none" stroke-width="1" fill="none" fill-rule="evenodd">
        <g id="Artboard" transform="translate(-136.000000, -2083.000000)">
            <ellipse id="Oval-Copy-2" fill="#227D75" opacity="0.784703351" cx="190" cy="2135.5" rx="54" ry="52.5"></ellipse>
            <g id="noun_943295" transform="translate(149.000000, 2107.000000)" fill-rule="nonzero" fill="#FFFFFF">
                <path d="M37.208339,0.0149882126 L25.0221148,26.1534535 L30.8457596,26.1534535 L30.2278615,25.2307009 L30.2515831,25.1891575 L32.1577573,25.0174447 L31.0535671,23.4226663 L31.0649404,23.38096 L32.9972733,23.2094101 L31.8930831,21.6144688 L31.9168046,21.5729254 L33.8229788,21.4148975 L32.7317867,19.8331523 L32.7556708,19.7655424 L34.66152,19.6075146 L33.5706528,18.0257694 L33.5942119,17.9579966 L35.5133842,17.8001316 L34.3961959,16.2182235 L34.419755,16.1766801 L36.3522503,15.9925858 L35.234737,14.4108406 L35.2586211,14.3691342 L37.190954,14.1850399 L36.0867638,12.6031318 L36.0981371,12.5617513 L38.0173094,12.377494 L36.9262798,10.7957489 L36.9500013,10.7423126 L38.8561755,10.5974809 L37.7519853,9.01573571 L37.7934168,8.93672176 L39.6994285,8.77869387 L38.5952383,7.21014483 L37.1886793,0 L37.208339,0.0149882126 Z M77.6445128,7.04054995 L66.3655574,26.4170505 C68.6538763,26.9093807 70.7105037,27.98283 72.3732881,29.501364 L80.0764609,16.2806201 C81.9610257,13.0680922 80.8685338,8.91000364 77.6445128,7.04054995 L77.6445128,7.04054995 Z M5.48772894,10.1250264 C4.19555342,10.5300339 2.99923903,11.2929665 2.04355232,12.3657641 C-0.891098037,15.645739 -0.628373553,20.6405608 2.59564743,23.5831379 C2.75032505,23.6975045 2.88778016,23.8247414 3.04262025,23.9125528 C4.71190371,25.2489474 6.78152923,25.8165445 8.7873015,25.5734748 C9.63526629,25.465299 10.4942795,25.7582208 11.1404485,26.3116443 C11.1404485,26.3289133 11.1666072,26.3230484 11.1666072,26.3230484 C12.007748,27.0789756 12.6995729,27.9813638 13.1909018,28.9329523 C14.5907992,27.8194259 16.2386358,26.99931 18.0153162,26.547057 C16.6154188,24.387614 16.136763,21.7478965 16.648239,19.2710943 C16.7156668,18.9402133 16.8229012,18.5876644 16.9372847,18.2297394 L16.9372847,18.1621295 C17.139243,16.6708024 16.6375156,15.0841697 15.4124428,13.9704804 C15.1432193,13.7275736 14.8080303,13.5201823 14.5184972,13.3382059 C12.8695233,12.4270203 10.7609034,12.5646838 9.27343115,13.7858973 C9.76459758,13.9613571 10.2565764,14.2516723 10.6536689,14.6297988 C12.4103647,16.1885729 12.5377463,18.8859624 10.9558752,20.6270388 L10.9558752,20.6566894 C10.3771339,21.2775598 9.4285962,21.4108246 8.69501485,21.0126595 C8.11627359,20.701817 7.58253833,20.3377012 7.09120942,19.8921277 C4.31139916,17.3680801 3.73070819,13.2697814 5.48756647,10.1248634 L5.48772894,10.1250264 Z M78.4991392,15.1998396 C78.7613762,15.3547721 78.8638989,15.7011302 78.7093837,15.9642385 L73.161624,25.4811018 C73.0071089,25.7507267 72.6748444,25.8339765 72.4124449,25.6788811 C72.1430589,25.5239486 72.0605208,25.1906237 72.2151985,24.9275154 L77.7496351,15.4106521 C77.9041503,15.1408643 78.2365772,15.0447442 78.4988142,15.2004913 L78.4991392,15.1998396 Z M21.144126,27.2736595 C14.6020101,27.2736595 9.31307542,32.603924 9.31307542,39.1368297 C9.31307542,45.6967794 14.6020101,51 21.144126,51 L63.7363628,51 C70.2718172,51 75.580574,45.6967794 75.580574,39.1368297 C75.5740749,32.5974074 70.2718172,27.2736595 63.7363628,27.2736595 L21.144126,27.2736595 Z M62.0274351,35.1427969 C64.2283417,35.1427969 65.9973857,36.9570223 65.9973857,39.1368297 C66.00226,41.3436811 64.2283417,43.1175035 62.0274351,43.1175035 C59.8265286,43.1175035 58.044324,41.3436811 58.044324,39.1368297 C58.044324,36.9503428 59.8265286,35.1427969 62.0274351,35.1427969 Z M21.354533,37.7662229 C22.1084239,37.7662229 22.7086121,38.37406 22.7086121,39.1368297 C22.7037378,39.9129585 22.1084239,40.5207957 21.354533,40.5207957 C20.6008046,40.5207957 19.9741328,39.919638 19.9741328,39.1368297 C19.9741328,38.3810654 20.6008046,37.7662229 21.354533,37.7662229 Z M28.6240561,38.0166238 L52.0365933,38.0166238 L52.0365933,40.2443283 L28.6240561,40.2443283 L28.6240561,38.0166238 Z" id="Shape"></path>
            </g>
        </g>
    </g>
</svg>
