<svg width="108px" height="105px" viewBox="0 0 108 105" version="1.1" xmlns="http://www.w3.org/2000/svg" xmlns:xlink="http://www.w3.org/1999/xlink">
    <!--  Generator: Sketch 47.1 (45422) - http://www.bohemiancoding.com/sketch  -->
    <desc>Created with Sketch.</desc>
    <defs>
        <rect id="path-1" x="60" y="3" width="2" height="50"></rect>
        <rect id="path-2" x="0" y="52" width="62" height="2"></rect>
    </defs>
    <g id="Regina" stroke="none" stroke-width="1" fill="none" fill-rule="evenodd">
        <g id="Artboard" transform="translate(-419.000000, -2083.000000)">
            <ellipse id="Oval" fill="#DD4D3A" opacity="0.780117754" cx="473" cy="2135.5" rx="54" ry="52.5"></ellipse>
            <g id="Group-19" transform="translate(442.000000, 2109.000000)">
                <g id="Group-21">
                    <g id="Group-20">
                        <g id="Rectangle-10">
                            <use fill="#FFFFFF" fill-rule="evenodd" xlink:href="#path-1"></use>
                            <rect stroke="#FFFFFF" stroke-width="1" x="60.5" y="3.5" width="1" height="49"></rect>
                        </g>
                        <g id="Rectangle-8">
                            <use fill="#FFFFFF" fill-rule="evenodd" xlink:href="#path-2"></use>
                            <rect stroke="#FFFFFF" stroke-width="1" x="0.5" y="52.5" width="61" height="1"></rect>
                        </g>
                        <g id="noun_122118_cc" fill-rule="nonzero" fill="#FFFFFF">
                            <path d="M18.0833333,11.2372881 L3.44444444,11.2372881 L3.44444444,8.6440678 L18.0833333,8.6440678 L18.0833333,11.2372881 Z M18.0833333,12.9661017 L3.44444444,12.9661017 L3.44444444,15.559322 L18.0833333,15.559322 L18.0833333,12.9661017 Z M18.0833333,17.2881356 L3.44444444,17.2881356 L3.44444444,19.8813559 L18.0833333,19.8813559 L18.0833333,17.2881356 Z M36.1666667,12.1016949 L21.5277778,12.1016949 L21.5277778,23.3389831 L36.1666667,23.3389831 L36.1666667,12.1016949 L36.1666667,12.1016949 Z M43.9166667,17.2881356 L28.4166667,17.2881356 L28.4166667,29.3898305 L43.9166667,29.3898305 L43.9166667,17.2881356 Z M29.2777778,18.1525424 L43.0555556,18.1525424 L43.0555556,29.3898305 L29.2777778,29.3898305 L29.2777778,18.1525424 Z M18.0833333,22.4745763 L3.44444444,22.4745763 L3.44444444,33.7118644 L18.0833333,33.7118644 L18.0833333,22.4745763 Z M36.1666667,31.9830508 L21.5277778,31.9830508 L21.5277778,43.220339 L36.1666667,43.220339 L36.1666667,31.9830508 L36.1666667,31.9830508 Z M18.0833333,36.3050847 L3.44444444,36.3050847 L3.44444444,47.5423729 L18.0833333,47.5423729 L18.0833333,36.3050847 Z M0,0 L0,51 L1.44186047,51 L1.44186047,5.66666667 L62,5.66666667 L62,0 L0,0 Z M4.73525,2.59322034 C4.02225,2.59322034 3.44444444,2.98047458 3.44444444,3.45762712 C3.44444444,3.93535593 4.02225,4.3220339 4.73525,4.3220339 C5.44911111,4.3220339 6.02777778,3.93535593 6.02777778,3.45762712 C6.02777778,2.98047458 5.44911111,2.59322034 4.73525,2.59322034 Z M8.18055556,2.59322034 C7.46755556,2.59322034 6.88888889,2.98047458 6.88888889,3.45762712 C6.88888889,3.93535593 7.46755556,4.3220339 8.18055556,4.3220339 C8.89355556,4.3220339 9.47222222,3.93535593 9.47222222,3.45762712 C9.47222222,2.98047458 8.89355556,2.59322034 8.18055556,2.59322034 Z M11.625,2.59322034 C10.912,2.59322034 10.3333333,2.98047458 10.3333333,3.45762712 C10.3333333,3.93535593 10.912,4.3220339 11.625,4.3220339 C12.3388611,4.3220339 12.9166667,3.93535593 12.9166667,3.45762712 C12.9166667,2.98047458 12.3388611,2.59322034 11.625,2.59322034 Z" id="Shape"></path>
                        </g>
                    </g>
                </g>
            </g>
        </g>
    </g>
</svg>
