<svg width="108px" height="105px" viewBox="0 0 108 105" version="1.1" xmlns="http://www.w3.org/2000/svg" xmlns:xlink="http://www.w3.org/1999/xlink">
    <!--  Generator: Sketch 47.1 (45422) - http://www.bohemiancoding.com/sketch  -->
    <desc>Created with Sketch.</desc>
    <defs></defs>
    <g id="Regina" stroke="none" stroke-width="1" fill="none" fill-rule="evenodd">
        <g id="Artboard" transform="translate(-765.000000, -2083.000000)">
            <ellipse id="Oval-Copy-3" fill="#ffd10f" cx="819" cy="2135.5" rx="54" ry="52.5"></ellipse>
            <g id="noun_975611_cc" transform="translate(788.000000, 2104.000000)" fill-rule="nonzero" fill="#FFFFFF">
                <g id="Group">
                    <path d="M4.2,0.00761059908 L4.2,2.00069816 L6.3,2.00069816 L6.3,0.00761059908 L4.2,0.00761059908 Z M8.4,0.00761059908 L8.4,2.00069816 L10.5,2.00069816 L10.5,0.00761059908 L8.4,0.00761059908 Z M12.6,0.00761059908 L12.6,2.00069816 L14.7,2.00069816 L14.7,0.00761059908 L12.6,0.00761059908 Z M16.8,0.00761059908 L16.8,2.00069816 L39.9,2.00069816 L39.9,0.00761059908 L16.8,0.00761059908 Z M43.8087888,0.120500274 L42.2912112,1.49464087 L44.7972651,3.99378571 L10.5,3.99378571 C7.02794589,3.99378571 4.2,6.67787673 4.2,9.97304839 L4.2,11.9661359 L6.3,11.9661359 L6.3,9.97304839 C6.3,7.74756682 8.15501379,5.98687327 10.5,5.98687327 L44.8013664,5.98687327 L42.2912112,8.48991102 L43.8087888,9.86405141 L48.0087888,5.67934604 C48.3946731,5.29450723 48.3946731,4.69004446 48.0087888,4.30520565 L43.8087888,0.120500274 Z M50.4,3.99378571 L50.4,5.98687327 L52.5,5.98687327 C54.845448,5.98687327 56.7002163,7.74756682 56.7,9.97304839 L56.7,42.5281087 L54.0626961,40.1457472 L52.6148448,41.5899564 L57.0240237,45.5761315 C57.4295059,45.94237 58.0663928,45.94237 58.471875,45.5761315 L62.8851552,41.5899564 L61.4373039,40.1457472 L58.8,42.5281087 L58.8,9.97304839 C58.8003213,6.67787673 55.9723668,3.99378571 52.5,3.99378571 L50.4,3.99378571 Z M60.9,3.99378571 L60.9,5.98687327 L63,5.98687327 L63,3.99378571 L60.9,3.99378571 Z M60.9,7.97996083 L60.9,9.97304839 L63,9.97304839 L63,7.97996083 L60.9,7.97996083 Z M28.35,11.9661359 C27.770125,11.966191 27.300058,12.4123266 27.3,12.9626797 L27.3,18.7083765 C26.8786623,18.8518788 26.468295,19.017598 26.0654289,19.2027558 L21.8080086,15.1620829 C21.3979521,14.7730627 20.7332979,14.7730627 20.3232414,15.1620829 L15.8689453,19.3896078 C15.4590574,19.7787881 15.4590574,20.4096042 15.8689453,20.7987845 L20.1509763,24.8628136 C19.9811493,25.2102087 19.829649,25.5643864 19.6957026,25.9255338 L13.5966797,25.9255338 C13.0168048,25.9255889 12.5467377,26.3717245 12.5466797,26.9220776 L12.5466797,32.9013403 C12.5467377,33.4516934 13.0168048,33.8978291 13.5966797,33.8978841 L19.7039052,33.8978841 C19.8466653,34.2757735 20.0099508,34.644975 20.1919914,35.0073183 L15.8648437,39.1141689 C15.4549573,39.503349 15.4549573,40.1341636 15.8648437,40.5233436 L20.3191401,44.7508697 C20.7291964,45.1398885 21.3938489,45.1398885 21.8039052,44.7508697 L26.1310539,40.6440191 C26.5129536,40.8154246 26.9019282,40.965536 27.3,41.0994715 L27.3,46.8451682 C27.300058,47.3955213 27.770125,47.841657 28.35,47.841712 L34.65,47.841712 C35.229875,47.841657 35.699942,47.3955213 35.7,46.8451682 L35.7,41.1072565 C36.0756249,40.9796989 36.4421904,40.8325094 36.8033211,40.6712686 L41.1140625,44.7586547 C41.5241188,45.1476735 42.1887713,45.1476735 42.5988276,44.7586547 L47.053125,40.5311286 C47.4630115,40.1419486 47.4630115,39.511134 47.053125,39.1219539 L42.7792974,35.0657098 C42.9713844,34.6862259 43.1390001,34.298401 43.2878901,33.9017766 L49.2966789,33.9017766 C49.8765539,33.9017216 50.3466209,33.4555859 50.3466789,32.9052328 L50.3466789,26.9259701 C50.3466209,26.375617 49.8765539,25.9294814 49.2966789,25.9294263 L43.3001961,25.9294263 C43.1564301,25.5493446 42.9956457,25.1765455 42.8121099,24.8122071 L47.0449224,20.794892 C47.4548103,20.4057117 47.4548103,19.7748956 47.0449224,19.3857153 L42.590625,15.1581902 C42.1805687,14.7691714 41.5159162,14.7691714 41.1058599,15.1581902 L36.8730474,19.1716138 C36.49002,18.9964215 36.0992352,18.8460071 35.7,18.7122709 L35.7,12.9626797 C35.699942,12.4123266 35.229875,11.966191 34.65,11.9661359 L28.35,11.9661359 Z M60.9,11.9661359 L60.9,13.9592235 L63,13.9592235 L63,11.9661359 L60.9,11.9661359 Z M29.4,13.9592235 L33.6,13.9592235 L33.6,19.3701453 C33.5991624,19.8177491 33.9128399,20.2109789 34.3669914,20.3316546 C35.1510222,20.5403309 35.9064363,20.833221 36.61875,21.2075229 C37.0275471,21.4236493 37.5376933,21.3569763 37.8697263,21.0440279 L41.8482414,17.2680602 L44.8177737,20.0864111 L40.8351552,23.8662698 C40.5014306,24.1826882 40.4309732,24.6714803 40.6628901,25.061343 C41.0625705,25.7368004 41.3775369,26.4536462 41.6021487,27.1984631 C41.7319228,27.6250167 42.1433378,27.9186623 42.6111336,27.9186214 L48.2466789,27.9186214 L48.2466789,31.9047965 L42.5988276,31.9047965 C42.1287357,31.9057479 41.7165822,32.2031019 41.5898448,32.6327419 C41.3625996,33.3927061 41.0394264,34.1246675 40.6300776,34.8126814 C40.4002652,35.2016078 40.4706191,35.6880863 40.8023448,36.0038621 L44.8259763,39.8226478 L41.8564461,42.6448916 L37.8,38.794964 C37.4689557,38.4807209 36.9587048,38.4124458 36.5490237,38.6275745 C35.8559565,38.9917116 35.1202131,39.2805917 34.3587888,39.4878728 C33.9093549,39.6110399 33.5999579,40.0015084 33.6,40.4454876 L33.6,45.8486244 L29.4,45.8486244 L29.4,40.4377026 C29.3989979,39.991544 29.0856943,39.6003737 28.6330086,39.4800878 C27.851544,39.2708116 27.0994059,38.9781208 26.3894526,38.6042175 C25.9806551,38.3880916 25.4705088,38.4547654 25.1384763,38.7677145 L21.0615237,42.6371066 L18.0919922,39.8187553 L22.1689461,35.9493631 C22.5006711,35.6335869 22.5710242,35.1471084 22.3412112,34.7581824 C21.9433515,34.0847181 21.6300231,33.3710752 21.4060539,32.6288494 C21.2777946,32.2007526 20.8660122,31.9052548 20.3970711,31.9047965 L14.6466797,31.9047965 L14.6466797,27.9186214 L20.3970711,27.9186214 C20.8686843,27.9194155 21.2830065,27.6217077 21.4101552,27.1906781 C21.6240276,26.4635997 21.9235002,25.7629736 22.3042974,25.100272 C22.5278338,24.7115609 22.4543159,24.2294816 22.1238276,23.9168763 L18.0960937,20.0941961 L21.065625,17.2758458 L25.0728513,21.0790624 C25.4069144,21.3977052 25.9243752,21.4646754 26.3361336,21.2425574 C27.062889,20.8499191 27.8331228,20.54231 28.6371099,20.3238676 C29.089634,20.2017439 29.4013528,19.8088697 29.4,19.3623603 L29.4,13.9592235 Z M5.20898448,13.9631162 C4.95474291,13.9726608 4.71279996,14.0694908 4.528125,14.2356087 L0.11484375,18.2217841 L1.56269526,19.6659932 L4.2,17.2836314 L4.2,49.8347995 C4.20006468,53.1301705 7.02790431,55.8140622 10.5,55.8140622 L12.6,55.8140622 L12.6,53.8209747 L10.5,53.8209747 C8.15495247,53.8209747 6.30004368,52.0604804 6.3,49.8347995 L6.3,17.2836314 L8.93730474,19.6659932 L10.3851563,18.2217841 L5.97597651,14.2356087 C5.76970605,14.0500022 5.49296903,13.9516847 5.20898448,13.9631162 Z M60.9,15.9523111 L60.9,37.8762742 L63,37.8762742 L63,15.9523111 L60.9,15.9523111 Z M0,21.9315737 L0,43.8555369 L2.1,43.8555369 L2.1,21.9315737 L0,21.9315737 Z M31.5,23.9246613 C28.0328202,23.9246613 25.199937,26.6133364 25.2,29.903924 C25.2000756,33.1945115 28.0329168,35.8831866 31.5,35.8831866 C34.9670832,35.8831866 37.7999244,33.1945115 37.8,29.903924 C37.800063,26.6133364 34.9671798,23.9246613 31.5,23.9246613 Z M31.5,25.9177488 C33.8322432,25.9177488 35.700042,27.6904009 35.7,29.903924 C35.6999496,32.117447 33.832176,33.8900991 31.5,33.8900991 C29.167824,33.8900991 27.3000504,32.117447 27.3,29.903924 C27.299958,27.6904009 29.1677568,25.9177488 31.5,25.9177488 Z M0,45.8486244 L0,47.841712 L2.1,47.841712 L2.1,45.8486244 L0,45.8486244 Z M56.7,47.841712 L56.7,49.8347995 C56.7000924,52.0606797 54.8450616,53.821174 52.5,53.8209747 L18.2027345,53.8209747 L20.7087888,51.3218302 L19.1912112,49.9437975 L14.991211,54.1323946 C14.6053269,54.5172334 14.6053269,55.121696 14.991211,55.5065348 L19.1912112,59.6912394 L20.7087888,58.3170992 L18.1986328,55.8140622 L52.5,55.8140622 C55.9721736,55.8142615 58.8001344,53.1303698 58.8,49.8347995 L58.8,47.841712 L56.7,47.841712 Z M0,49.8347995 L0,51.8278871 L2.1,51.8278871 L2.1,49.8347995 L0,49.8347995 Z M0,53.8209747 L0,55.8140622 L2.1,55.8140622 L2.1,53.8209747 L0,53.8209747 Z M23.1,57.8071498 L23.1,59.8002373 L46.2,59.8002373 L46.2,57.8071498 L23.1,57.8071498 Z M48.3,57.8071498 L48.3,59.8002373 L50.4,59.8002373 L50.4,57.8071498 L48.3,57.8071498 Z M52.5,57.8071498 L52.5,59.8002373 L54.6,59.8002373 L54.6,57.8071498 L52.5,57.8071498 Z M56.7,57.8071498 L56.7,59.8002373 L58.8,59.8002373 L58.8,57.8071498 L56.7,57.8071498 Z" id="Shape"></path>
                </g>
            </g>
        </g>
    </g>
</svg>
