<svg width="100px" height="100px" viewBox="0 0 108 105" version="1.1" xmlns="http://www.w3.org/2000/svg" xmlns:xlink="http://www.w3.org/1999/xlink">
    <!--  Generator: Sketch 47.1 (45422) - http://www.bohemiancoding.com/sketch  -->
    <desc>Created with Sketch.</desc>
    <defs></defs>
    <g id="Regina" stroke="none" stroke-width="1" fill="none" fill-rule="evenodd">
        <g id="Artboard" transform="translate(-1133.000000, -1542.000000)">
            <ellipse id="Oval-Copy-4" fill="#48A098" cx="1187" cy="1594.5" rx="54" ry="52.5"></ellipse>
            <g id="noun_1018209_cc" transform="translate(1151.000000, 1558.000000)" fill-rule="nonzero" fill="#FFFFFF">
                <g id="Group">
                    <path d="M2.02666667,51.2244898 L2.02666667,37.8061224 C2.02666667,35.9183673 3.344,34.2857143 5.11733333,33.9285714 L8.71466667,32.9081633 L10.792,32.2959184 C11.0453333,32.244898 11.248,31.9897959 11.248,31.7346939 L11.248,29.2857143 L11.1466667,29.1836735 C10.0826667,28.3673469 9.424,27.0918367 9.272,25.7653061 C9.22133333,25.3061224 9.22133333,24.9489796 9.17066667,24.744898 L8.76533333,24.744898 C8.36,24.744898 8.00533333,24.4387755 7.95466667,24.0816327 L7.6,21.9387755 C7.49866667,21.3265306 8.00533333,20.7653061 8.61333333,20.7653061 L8.71466667,16.8367347 C8.71466667,14.4387755 10.6906667,12.4489796 13.1226667,12.4489796 L15.96,12.4489796 C18.392,12.4489796 20.368,14.3877551 20.368,16.8367347 L20.4693333,20.7653061 C21.0773333,20.7653061 21.584,21.3265306 21.4826667,21.9387755 L21.1786667,23.9795918 C21.128,24.3877551 20.7733333,24.6428571 20.368,24.6428571 L19.9626667,24.6428571 C19.912,24.8469388 19.912,25.255102 19.8613333,25.6632653 C19.76,26.9897959 19.0506667,28.2653061 17.9866667,29.0816327 L17.8346667,29.1836735 L17.8346667,31.6326531 C17.8346667,31.9387755 18.0373333,32.1428571 18.2906667,32.1938776 L19.912,32.6530612 C20.824,32.0918367 21.7866667,31.6326531 22.8506667,31.4285714 L22.9013333,31.4285714 L19.8106667,30.5612245 L19.8106667,30.1020408 C20.8746667,29.0306122 21.5333333,27.7040816 21.736,26.2755102 C22.4453333,25.8673469 23.0026667,25.1020408 23.104,24.2857143 L23.408,22.244898 C23.56,21.377551 23.3066667,20.4591837 22.6986667,19.7959184 C22.5973333,19.6938776 22.496,19.5408163 22.3946667,19.4897959 L22.4453333,16.8367347 C22.4453333,13.3163265 19.5573333,10.4591837 16.0106667,10.4591837 L13.1733333,10.4591837 C9.62666667,10.4591837 6.73866667,13.3163265 6.73866667,16.8367347 L6.688,19.4897959 C6.58666667,19.5918367 6.48533333,19.6938776 6.33333333,19.8469388 C5.776,20.5102041 5.52266667,21.4285714 5.624,22.2959184 L5.928,24.3367347 C6.08,25.2040816 6.58666667,25.9183673 7.296,26.377551 C7.49866667,27.8571429 8.208,29.1836735 9.22133333,30.2040816 L9.22133333,30.6122449 L8.15733333,30.9183673 L4.61066667,31.9387755 C1.92533333,32.5510204 0,35 0,37.8061224 L0,51.2244898 L0,52.3979592 L1.01333333,53.0102041 L15.504,61.6326531 L15.504,59.2857143 L2.02666667,51.2244898 Z" id="Shape"></path>
                    <path d="M71.3386667,31.9897959 L66.728,30.6632653 L66.728,30.2040816 C67.7413333,29.1836735 68.4506667,27.8061224 68.6533333,26.377551 C69.3626667,25.9693878 69.8693333,25.255102 70.0213333,24.3367347 L70.3253333,22.2959184 C70.4773333,21.4285714 70.224,20.5102041 69.616,19.8469388 C69.5146667,19.744898 69.4133333,19.5918367 69.312,19.4897959 L69.2613333,16.8367347 C69.2613333,13.3163265 66.3733333,10.4591837 62.8266667,10.4591837 L59.9893333,10.4591837 C56.4426667,10.4591837 53.5546667,13.3163265 53.5546667,16.8367347 L53.504,19.4897959 C53.4026667,19.5918367 53.3013333,19.6938776 53.2,19.7959184 C52.6426667,20.4591837 52.3893333,21.377551 52.4906667,22.244898 L52.7946667,24.2857143 C52.9466667,25.1530612 53.4533333,25.9183673 54.1626667,26.3265306 C54.3653333,27.755102 55.0746667,29.1326531 56.088,30.1530612 L56.088,30.6122449 L55.024,30.9183673 L53.0986667,31.4795918 L53.0986667,31.4795918 C54.1626667,31.7346939 55.176,32.1428571 56.088,32.755102 L57.608,32.2959184 C57.8613333,32.244898 58.064,31.9897959 58.064,31.7346939 L58.064,29.2857143 L57.912,29.1836735 C56.848,28.3673469 56.1386667,27.0918367 56.0373333,25.7653061 C55.9866667,25.3061224 55.936,24.8979592 55.936,24.744898 L55.5306667,24.744898 C55.1253333,24.744898 54.7706667,24.4387755 54.72,24.0816327 L54.416,22.0408163 C54.3146667,21.4285714 54.8213333,20.8673469 55.4293333,20.8673469 L55.5306667,16.9387755 C55.5306667,14.5408163 57.5066667,12.6020408 59.9386667,12.6020408 L62.776,12.6020408 C65.208,12.6020408 67.184,14.5408163 67.184,16.9387755 L67.2853333,20.8673469 C67.8933333,20.8673469 68.4,21.4285714 68.2986667,22.0408163 L67.9946667,24.0816327 C67.944,24.4897959 67.5893333,24.744898 67.184,24.744898 L66.7786667,24.744898 C66.728,24.9489796 66.728,25.3571429 66.6773333,25.7653061 C66.576,27.0918367 65.8666667,28.3673469 64.8026667,29.1836735 L64.6506667,29.2857143 L64.6506667,31.7346939 C64.6506667,31.9897959 64.8533333,32.244898 65.1066667,32.2959184 L70.7813333,33.9285714 C72.6053333,34.2857143 73.872,35.9183673 73.872,37.8061224 L73.872,51.2244898 L60.4453333,59.1836735 L60.4453333,61.5306122 L74.8853333,52.9591837 L75.8986667,52.3469388 L75.8986667,51.1734694 L75.8986667,37.8571429 C76,35.0510204 74.0746667,32.6020408 71.3386667,31.9897959 Z" id="Shape"></path>
                    <path d="M31.616,12.244898 C33.0346667,12.244898 34.2506667,11.4795918 34.9093333,10.2040816 L34.96,10.1020408 C36.2266667,11.4285714 38,12.1938776 39.8746667,12.1938776 L45.3973333,12.1938776 L45.3973333,10.3571429 L45.3973333,10.1530612 L39.8746667,10.1530612 C38.152,10.1530612 36.5306667,9.18367347 35.72,7.70408163 L34.808,6.02040816 L33.136,9.23469388 C32.832,9.79591837 32.2746667,10.1530612 31.616,10.1530612 L30.6533333,10.1530612 L30.6026667,12.244898 L30.6026667,12.244898 L31.616,12.244898 Z" id="Shape"></path>
                    <path d="M52.744,33.0102041 L44.992,30.7653061 L44.992,30.1530612 L44.992,28.8265306 C46.7146667,27.244898 47.7786667,25.1020408 47.9813333,22.755102 C49.0453333,22.3469388 49.8053333,21.377551 50.008,20.2040816 L50.5146667,17.0918367 C50.6666667,16.0714286 50.3626667,15 49.704,14.2346939 C49.5013333,13.9795918 49.248,13.7755102 48.9946667,13.5714286 L48.8933333,9.03061224 C48.8933333,4.28571429 44.992,0.408163265 40.1786667,0.408163265 L35.872,0.408163265 C31.0586667,0.408163265 27.1573333,4.28571429 27.1573333,9.03061224 L27.056,13.5714286 C26.8026667,13.7755102 26.5493333,13.9795918 26.3466667,14.2346939 C25.688,15 25.384,16.0714286 25.536,17.0918367 L26.0426667,20.2040816 C26.2453333,21.377551 27.0053333,22.2959184 28.0693333,22.7040816 C28.272,25.0510204 29.3866667,27.1938776 31.0586667,28.7755102 L31.0586667,30.7142857 L28.6773333,31.377551 L23.3066667,32.9081633 C19.6586667,33.6734694 17.0746667,36.9897959 17.0746667,40.7653061 L17.0746667,61.0714286 L17.0746667,62.244898 L18.088,62.8571429 L37.3413333,74.3367347 L38.4053333,74.9489796 L39.4186667,74.3367347 L58.1653333,62.8571429 L59.128,62.244898 L59.128,61.0714286 L59.128,40.8673469 C59.0266667,37.0918367 56.392,33.8265306 52.744,33.0102041 Z M57,61.1734694 L38.2533333,72.6530612 L19,61.1734694 L19,40.8673469 C19,38.0102041 20.976,35.5612245 23.712,35 L29.184,33.4183673 L32.3253333,32.5 C32.7306667,32.3979592 33.0346667,32.0408163 33.0346667,31.6326531 L33.0346667,30.3571429 L33.1866667,30.4591837 C34.2506667,31.1734694 35.4666667,31.5816327 36.7333333,31.5816327 L37.7466667,31.5816327 L37.7466667,29.5408163 L36.7333333,29.5408163 C35.872,29.5408163 35.0613333,29.2857143 34.352,28.7755102 L33.0346667,27.8571429 L33.0346667,27.8571429 L32.832,27.7040816 C31.2106667,26.4285714 30.1973333,24.5408163 29.9946667,22.5 C29.944,21.8367347 29.8933333,21.2244898 29.8426667,20.9183673 L29.184,20.9183673 C28.576,20.9183673 28.0693333,20.4591837 27.968,19.8979592 L27.4613333,16.7857143 C27.3093333,15.8673469 28.0186667,15 28.9813333,15 L29.1333333,9.03061224 C29.1333333,5.35714286 32.1226667,2.39795918 35.8213333,2.39795918 L40.128,2.39795918 C43.8266667,2.39795918 46.816,5.35714286 46.816,9.03061224 L46.968,15 C47.9306667,15 48.64,15.8163265 48.488,16.7857143 L47.9813333,19.8979592 C47.88,20.5102041 47.3733333,20.9183673 46.7653333,20.9183673 L46.1066667,20.9183673 C46.056,21.2244898 46.0053333,21.8367347 45.9546667,22.5 C45.8026667,24.5408163 44.7386667,26.4285714 43.1173333,27.7040816 L42.9146667,27.8571429 L42.9146667,30.1530612 L42.9146667,31.6326531 L42.9146667,35.4591837 L44.9413333,35.4591837 L44.9413333,32.8571429 L52.1866667,34.9489796 C54.9226667,35.5102041 56.8986667,37.9591837 56.8986667,40.8163265 L56.8986667,61.1734694 L57,61.1734694 Z" id="Shape"></path>
                </g>
            </g>
        </g>
    </g>
</svg>
