<?xml version="1.0" encoding="UTF-8" standalone="no"?>
<svg width="133px" height="133px" viewBox="0 0 133 133" version="1.1" xmlns="http://www.w3.org/2000/svg" xmlns:xlink="http://www.w3.org/1999/xlink">
    <!-- Generator: Sketch 46.2 (44496) - http://www.bohemiancoding.com/sketch -->
    <title>Group</title>
    <desc>Created with Sketch.</desc>
    <defs>
        <circle id="path-1" cx="66.5" cy="66.5" r="66.5"></circle>
        <rect id="path-3" x="26" y="75" width="49" height="7"></rect>
    </defs>
    <g id="Welcome" stroke="none" stroke-width="1" fill="none" fill-rule="evenodd">
        <g id="Desktop" transform="translate(-715.000000, -1165.000000)">
            <g id="Group" transform="translate(715.000000, 1165.000000)">
                <g id="Group-11">
                    <g id="Group-">
                        <mask id="mask-2" fill="white">
                            <use xlink:href="#path-1"></use>
                        </mask>
                        <use id="Oval-2" fill="#F78F98" xlink:href="#path-1"></use>
                        <path d="M-14.25,71.25 L144.875,71.25 C144.397147,84.9050388 143.680368,95.9341085 142.724662,104.337209 C141.768956,114.841085 139.857545,126.395349 136.990428,139 L1.51914414,139 L-6.36542793,139 C-8.75469219,127.445736 -10.6661036,115.366279 -12.0996622,102.761628 C-13.0553679,94.3585271 -13.7721471,83.8546512 -14.25,71.25 Z" id="Rectangle-13" fill="#FFFFFF" mask="url(#mask-2)"></path>
                        <g id="Group-3" mask="url(#mask-2)">
                            <g transform="translate(16.000000, 29.000000)">
                                <rect id="Rectangle-6" fill="#9B9B9B" fill-rule="evenodd" x="0" y="0" width="101" height="57" rx="4"></rect>
                                <rect id="Rectangle-7" fill-opacity="0.524031929" fill="#000000" fill-rule="evenodd" x="3" y="3" width="95" height="51" rx="4"></rect>
                                <rect id="Rectangle-9" fill="#FFFFFF" fill-rule="evenodd" x="11" y="8" width="80" height="41" rx="2"></rect>
                                <path d="M13,8 L89,8 L89,8 C90.1045695,8 91,8.8954305 91,10 L91,13 L11,13 L11,10 L11,10 C11,8.8954305 11.8954305,8 13,8 Z" id="Rectangle-9" fill="#9B9B9B" fill-rule="evenodd"></path>
                                <polygon id="Path-12" fill="#878787" fill-rule="evenodd" points="37.8571429 57 61.5357143 57 67 75 33 75"></polygon>
                                <g id="Rectangle-8" fill="none">
                                    <use fill="#9B9B9B" fill-rule="evenodd" xlink:href="#path-3"></use>
                                    <rect stroke="#979797" stroke-width="1" x="26.5" y="75.5" width="48" height="6"></rect>
                                </g>
                                <circle id="Oval-4" fill="#D0021B" fill-rule="evenodd" cx="15" cy="10" r="1"></circle>
                                <circle id="Oval-4" fill="#F8E71C" fill-rule="evenodd" cx="19" cy="10" r="1"></circle>
                                <circle id="Oval-4" fill="#7ED321" fill-rule="evenodd" cx="23" cy="10" r="1"></circle>
                            </g>
                        </g>
                    </g>
                </g>
                <rect id="Rectangle" fill="#1181B9" x="42" y="47" width="15" height="12" rx="1"></rect>
                <rect id="Rectangle" fill="#F26672" x="60" y="47" width="15" height="12" rx="1"></rect>
                <rect id="Rectangle" fill="#35E3C0" x="42" y="63" width="15" height="12" rx="1"></rect>
                <rect id="Rectangle" fill="#1181B9" x="60" y="63" width="15" height="12" rx="1"></rect>
                <rect id="Rectangle" fill="#35E3C0" x="78" y="47" width="15" height="12" rx="1"></rect>
                <rect id="Rectangle" fill="#F26672" x="78" y="63" width="15" height="12" rx="1"></rect>
            </g>
        </g>
    </g>
</svg>