<?xml version="1.0" encoding="UTF-8" standalone="no"?>
<svg width="133px" height="133px" viewBox="0 0 133 133" version="1.1" xmlns="http://www.w3.org/2000/svg" xmlns:xlink="http://www.w3.org/1999/xlink">
    <!-- Generator: Sketch 46.2 (44496) - http://www.bohemiancoding.com/sketch -->
    <title>Group 11</title>
    <desc>Created with Sketch.</desc>
    <defs>
        <circle id="path-1" cx="66.5" cy="66.5" r="66.5"></circle>
        <rect id="path-3" x="19" y="54.625" width="35.625" height="4.75"></rect>
    </defs>
    <g id="Welcome" stroke="none" stroke-width="1" fill="none" fill-rule="evenodd">
        <g id="Desktop" transform="translate(-465.000000, -1165.000000)">
            <g id="Group-11" transform="translate(465.000000, 1165.000000)">
                <g id="Group-10">
                    <mask id="mask-2" fill="white">
                        <use xlink:href="#path-1"></use>
                    </mask>
                    <use id="Oval-2" fill="#1181B9" xlink:href="#path-1"></use>
                    <path d="M-14.25,71.25 L144.875,71.25 C144.397147,76.3958333 143.680368,80.5520833 142.724662,83.71875 C141.768956,87.6770833 139.857545,92.03125 136.990428,96.78125 L1.51914414,96.78125 L-6.36542793,96.78125 C-8.75469219,92.4270833 -10.6661036,87.875 -12.0996622,83.125 C-13.0553679,79.9583333 -13.7721471,76 -14.25,71.25 Z" id="Rectangle-13" fill="#FFFFFF" mask="url(#mask-2)"></path>
                    <path d="M82.818604,81.9840686 C91.8088311,79.0368236 87.2834426,79.1042986 95.921526,80.4669059" id="Path-17" stroke="#4A4A4A" mask="url(#mask-2)"></path>
                    <path d="M-15.4375,96.1875 L143.6875,96.1875 C143.209647,103.607074 142.492868,109.599806 141.537162,114.165698 C140.581456,119.873062 138.670045,126.151163 135.802928,133 L0.331644144,133 L-7.55292793,133 C-9.94219219,126.721899 -11.8536036,120.15843 -13.2871622,113.309593 C-14.2428679,108.743702 -14.9596471,103.036337 -15.4375,96.1875 Z" id="Rectangle-13" fill="#CFCFCF" mask="url(#mask-2)"></path>
                    <g id="Group-3" mask="url(#mask-2)">
                        <g transform="translate(30.875000, 26.125000)">
                            <rect id="Rectangle-6" stroke="none" fill="#9B9B9B" fill-rule="evenodd" x="0" y="0" width="73.625" height="41.5625" rx="4"></rect>
                            <rect id="Rectangle-7" stroke="none" fill-opacity="0.524031929" fill="#000000" fill-rule="evenodd" x="2.375" y="2.375" width="68.875" height="36.8125" rx="4"></rect>
                            <rect id="Rectangle-9" stroke="none" fill="#FFFFFF" fill-rule="evenodd" x="8.3125" y="5.9375" width="58.1875" height="29.6875" rx="2"></rect>
                            <path d="M10.3125,5.9375 L64.5,5.9375 L64.5,5.9375 C65.6045695,5.9375 66.5,6.8329305 66.5,7.9375 L66.5,8.3125 L8.3125,8.3125 L8.3125,7.9375 L8.3125,7.9375 C8.3125,6.8329305 9.2079305,5.9375 10.3125,5.9375 Z" id="Rectangle-9" stroke="none" fill="#9B9B9B" fill-rule="evenodd"></path>
                            <polygon id="Path-12" stroke="none" fill="#878787" fill-rule="evenodd" points="27.3125 41.5625 44.6796875 41.5625 48.6875 54.625 23.75 54.625"></polygon>
                            <g id="Rectangle-8" stroke="none" fill="none">
                                <use fill="#9B9B9B" fill-rule="evenodd" xlink:href="#path-3"></use>
                                <rect stroke="#979797" stroke-width="1" x="19.5" y="55.125" width="34.625" height="3.75"></rect>
                            </g>
                            <circle id="Oval-4" stroke="none" fill="#D0021B" fill-rule="evenodd" cx="10.09375" cy="7.71875" r="1"></circle>
                            <circle id="Oval-4" stroke="none" fill="#F8E71C" fill-rule="evenodd" cx="12.46875" cy="7.71875" r="1"></circle>
                            <circle id="Oval-4" stroke="none" fill="#7ED321" fill-rule="evenodd" cx="13.65625" cy="7.71875" r="1"></circle>
                            <rect id="Rectangle" stroke="none" fill="#1181B9" fill-rule="evenodd" x="22.5625" y="13.0625" width="17.8125" height="2.375" rx="1"></rect>
                            <rect id="Rectangle" stroke="#979797" stroke-width="1" fill="none" x="23.0625" y="14.75" width="16.8125" height="6.125"></rect>
                            <rect id="Rectangle" stroke="#979797" stroke-width="1" fill="none" x="23.0625" y="24.25" width="16.8125" height="8.5" rx="1"></rect>
                            <rect id="Rectangle" stroke="none" fill="#35E3C0" fill-rule="evenodd" x="42.75" y="13.0625" width="8.3125" height="7.125" rx="1"></rect>
                            <rect id="Rectangle" stroke="none" fill="#F26672" fill-rule="evenodd" x="42.75" y="21.375" width="9.5" height="8.3125" rx="1"></rect>
                        </g>
                    </g>
                    <path d="M57.59375,95 L76,95 C84.0955641,95 98.7376939,105.234491 99.9647664,117.859375 L101.984595,138.640625 C103.211667,151.265509 96.2596702,161.5 86.4568749,161.5 L47.7306251,161.5 C37.9278298,161.5 30.9758328,151.265509 32.2029052,138.640625 L34.2227336,117.859375 C35.4498061,105.234491 49.4981859,95 57.59375,95 Z" id="Rectangle-14" fill="#F78F98" mask="url(#mask-2)"></path>
                    <path d="M58.1875,73.625 L74.21875,83.125 L75.7470699,97.1669445 C74.9984621,100.38489 72.0325081,101.993863 66.8244545,101.993863 C61.616401,101.993863 58.7407499,100.38489 58.1875,97.1669445 L58.1875,73.625 Z" id="Rectangle-5" fill="#E8D0A8" mask="url(#mask-2)"></path>
                    <path d="M67.09375,86.6814939 C78.375,92.03125 81.5880593,81.6428771 81.9375,71.378788 C82.02055,68.9393678 80.1176828,61.8828422 79.5625,59.96875 C77.7816991,53.8291199 75.2436617,54.625 67.09375,54.625 C56.4030204,54.625 51.0625,61.5419894 51.4119407,70.653247 C51.7613814,79.7645045 55.8125,81.3317379 67.09375,86.6814939 Z" id="Oval-3" fill="#E8D0A8" mask="url(#mask-2)"></path>
                    <path d="M94.2294933,90.4642313 C90.9411456,85.605675 90.5575051,82.0427337 93.0785716,79.7754074 C95.5996382,77.5080811 98.8879859,77.9939368 102.943615,81.2329743 C105.072691,84.3632998 105.072691,87.4403854 102.943615,90.4642313 C100.814538,93.4880771 97.9098311,93.4880771 94.2294933,90.4642313 Z" id="Path-16" fill="#4A4A4A" mask="url(#mask-2)"></path>
                    <path d="M97.375,90.25 C98.9583333,107.666667 98.9583333,117.5625 97.375,119.9375 C95,123.5 102.71875,127.0625 107.46875,126.46875 C112.21875,125.875 108.174759,90.25 105.6875,90.25 C104.029327,90.25 101.258494,90.25 97.375,90.25 Z" id="Path-13" fill="#F78F98" mask="url(#mask-2)"></path>
                    <path d="M97.96875,90.6458333 C95.59375,86.6875 95.3166667,83.7847222 97.1375,81.9375 C98.9583333,80.0902778 101.333333,80.4861111 104.2625,83.125 C105.45,87.3472222 105.45,89.8541667 104.2625,90.6458333 C103.075,91.4375 100.977083,91.4375 97.96875,90.6458333 Z" id="Path-16" fill="#E8D0A8" mask="url(#mask-2)"></path>
                </g>
                <path d="M78.337886,55.9515 C80.554038,58.7848334 80.554038,61.7063027 78.337886,64.7159079 C76.121734,67.7255132 74.6557414,72.0419003 73.9399082,77.6650693 C71.8456331,83.0091676 68.9136479,86.0923013 65.1439527,86.9144703 C59.4894098,88.1477237 46.9237591,75.8151891 50.6934543,64.7159079 C54.4631495,53.6166267 66.4005178,53 68.9136479,53 C70.589068,53 73.7304807,53.9838333 78.337886,55.9515 Z" id="Path-14" fill="#F1E76D"></path>
                <path d="M49.4059852,63 C43.0505012,66.0018263 42.2988307,74.0902045 47.1509737,87.2651344 C52.0031167,100.440064 52.7004202,107.657486 49.2428842,108.917399 C57.0809614,109.715879 61,104.725375 61,93.9458872 C61,77.776655 56.524278,75.4333337 54.5628821,71.2345277 C53.2552849,68.4353237 51.5363193,65.6904811 49.4059852,63 Z" id="Path-15" fill="#FAEE5D" transform="translate(52.500000, 86.000000) rotate(19.000000) translate(-52.500000, -86.000000) "></path>
            </g>
        </g>
    </g>
</svg>