<?xml version="1.0" encoding="UTF-8" standalone="no"?>
<svg width="130px" height="130px" viewBox="0 0 130 130" version="1.1" xmlns="http://www.w3.org/2000/svg" xmlns:xlink="http://www.w3.org/1999/xlink">
    <!-- Generator: Sketch 46.2 (44496) - http://www.bohemiancoding.com/sketch -->
    <title>Group 10</title>
    <desc>Created with Sketch.</desc>
    <defs>
        <circle id="path-1" cx="65" cy="65" r="65"></circle>
        <rect id="path-3" x="18.5806452" y="53.36" width="34.8387097" height="4.64"></rect>
    </defs>
    <g id="Welcome" stroke="none" stroke-width="1" fill="none" fill-rule="evenodd">
        <g id="Desktop" transform="translate(-205.000000, -1168.000000)">
            <g id="Group-10" transform="translate(205.000000, 1168.000000)">
                <mask id="mask-2" fill="white">
                    <use xlink:href="#path-1"></use>
                </mask>
                <use id="Oval-2" fill="#F78F98" xlink:href="#path-1"></use>
                <path d="M-14,70 L142,70 C141.531532,75.0387597 140.828829,79.1085271 139.891892,82.2093023 C138.954955,86.0852713 137.081081,90.3488372 134.27027,95 L1.45945946,95 L-6.27027027,95 C-8.61261261,90.7364341 -10.4864865,86.2790698 -11.8918919,81.627907 C-12.8288288,78.5271318 -13.5315315,74.6511628 -14,70 Z" id="Rectangle-13" fill="#FFFFFF" mask="url(#mask-2)"></path>
                <path d="M-15,94 L141,94 C140.531532,101.255814 139.828829,107.116279 138.891892,111.581395 C137.954955,117.162791 136.081081,123.302326 133.27027,130 L0.459459459,130 L-7.27027027,130 C-9.61261261,123.860465 -11.4864865,117.44186 -12.8918919,110.744186 C-13.8288288,106.27907 -14.5315315,100.697674 -15,94 Z" id="Rectangle-13" fill="#CFCFCF" mask="url(#mask-2)"></path>
                <g id="Group-3" mask="url(#mask-2)">
                    <g transform="translate(34.000000, 24.000000)">
                        <rect id="Rectangle-6" fill="#9B9B9B" fill-rule="evenodd" x="0" y="0" width="72" height="40.6" rx="4"></rect>
                        <rect id="Rectangle-7" fill-opacity="0.524031929" fill="#000000" fill-rule="evenodd" x="2.32258065" y="2.32" width="67.3548387" height="35.96" rx="4"></rect>
                        <rect id="Rectangle-9" fill="#FFFFFF" fill-rule="evenodd" x="8.12903226" y="5.8" width="56.9032258" height="29" rx="2"></rect>
                        <path d="M10.1290323,5.8 L63.0322581,5.8 L63.0322581,5.8 C64.1368276,5.8 65.0322581,6.6954305 65.0322581,7.8 L65.0322581,8.12 L8.12903226,8.12 L8.12903226,7.8 L8.12903226,7.8 C8.12903226,6.6954305 9.02446276,5.8 10.1290323,5.8 Z" id="Rectangle-9" fill="#9B9B9B" fill-rule="evenodd"></path>
                        <polygon id="Path-12" fill="#878787" fill-rule="evenodd" points="26.7096774 40.6 43.6935484 40.6 47.6129032 53.36 23.2258065 53.36"></polygon>
                        <g id="Rectangle-8" fill="none">
                            <use fill="#9B9B9B" fill-rule="evenodd" xlink:href="#path-3"></use>
                            <rect stroke="#979797" stroke-width="1" x="19.0806452" y="53.86" width="33.8387097" height="3.64"></rect>
                        </g>
                        <ellipse id="Oval-4" fill="#D0021B" fill-rule="evenodd" cx="9.87096774" cy="7.54" rx="1" ry="1"></ellipse>
                        <ellipse id="Oval-4" fill="#F8E71C" fill-rule="evenodd" cx="12.1935484" cy="7.54" rx="1" ry="1"></ellipse>
                        <ellipse id="Oval-4" fill="#7ED321" fill-rule="evenodd" cx="13.3548387" cy="7.54" rx="1" ry="1"></ellipse>
                        <rect id="Rectangle" fill="#1181B9" fill-rule="evenodd" x="22.0645161" y="12.76" width="8.12903226" height="6.96" rx="1"></rect>
                        <rect id="Rectangle" fill="#F26672" fill-rule="evenodd" x="31.3548387" y="12.76" width="8.12903226" height="6.96" rx="1"></rect>
                        <rect id="Rectangle" fill="#35E3C0" fill-rule="evenodd" x="22.0645161" y="20.88" width="8.12903226" height="6.96" rx="1"></rect>
                        <rect id="Rectangle" fill="#1181B9" fill-rule="evenodd" x="31.3548387" y="20.88" width="8.12903226" height="6.96" rx="1"></rect>
                        <rect id="Rectangle" fill="#35E3C0" fill-rule="evenodd" x="40.6451613" y="16.24" width="8.12903226" height="6.96" rx="1"></rect>
                        <rect id="Rectangle" fill="#F26672" fill-rule="evenodd" x="40.6451613" y="24.36" width="9.29032258" height="8.12" rx="1"></rect>
                    </g>
                </g>
                <path d="M39.4798502,75 L70.5201498,75 C78.3773967,75 85.7124094,85.0036376 86.9033593,97.34375 L88.863728,117.65625 C90.0546779,129.996362 83.3073338,140 73.7931132,140 L36.2068868,140 C26.6926662,140 19.9453221,129.996362 21.136272,117.65625 L23.0966407,97.34375 C24.2875906,85.0036376 31.6226033,75 39.4798502,75 Z" id="Rectangle-14" fill="#1181B9" mask="url(#mask-2)"></path>
                <path d="M56.5,83 C79.5243253,83 76.910507,70.81 76.910507,55.8180165 C76.910507,40.8260331 67.7724118,30 56.5,30 C45.2275882,30 36.089493,41.5591197 36.089493,55.8180165 C36.089493,70.0769133 33.4756747,83 56.5,83 Z" id="Oval-5" fill="#906D4E" mask="url(#mask-2)"></path>
            </g>
        </g>
    </g>
</svg>