<?xml version="1.0" encoding="UTF-8" standalone="no"?>
<svg width="84px" height="69px" viewBox="0 0 84 69" version="1.1" xmlns="http://www.w3.org/2000/svg" xmlns:xlink="http://www.w3.org/1999/xlink">
    <!-- Generator: Sketch 46.2 (44496) - http://www.bohemiancoding.com/sketch -->
    <title>Group 3</title>
    <desc>Created with Sketch.</desc>
    <defs>
        <rect id="path-1" x="22" y="63" width="40" height="6"></rect>
    </defs>
    <g id="Welcome" stroke="none" stroke-width="1" fill="none" fill-rule="evenodd">
        <g id="Desktop" transform="translate(-136.000000, -1766.000000)">
            <g id="Group-3" transform="translate(136.000000, 1766.000000)">
                <rect id="Rectangle-6" fill="#9B9B9B" x="0" y="0" width="84" height="48" rx="4"></rect>
                <rect id="Rectangle-7" fill-opacity="0.524031929" fill="#000000" x="3" y="3" width="78" height="42" rx="4"></rect>
                <rect id="Rectangle-9" fill="#FFFFFF" x="9" y="7" width="66" height="34" rx="2"></rect>
                <path d="M11,7 L73,7 L73,7 C74.1045695,7 75,7.8954305 75,9 L75,10 L9,10 L9,9 L9,9 C9,7.8954305 9.8954305,7 11,7 Z" id="Rectangle-9" fill="#9B9B9B"></path>
                <polygon id="Path-12" fill="#878787" points="31.5 48 51 48 55.5 63.5 27.5 63.5"></polygon>
                <g id="Rectangle-8">
                    <use fill="#9B9B9B" fill-rule="evenodd" xlink:href="#path-1"></use>
                    <rect stroke="#979797" stroke-width="1" x="22.5" y="63.5" width="39" height="5"></rect>
                </g>
                <circle id="Oval-4" fill="#D0021B" cx="11.5" cy="8.5" r="1"></circle>
                <circle id="Oval-4" fill="#F8E71C" cx="13.5" cy="8.5" r="1"></circle>
                <circle id="Oval-4" fill="#7ED321" cx="15.5" cy="8.5" r="1"></circle>
                <rect id="Rectangle" fill="#1181B9" x="26" y="15" width="9" height="8" rx="1"></rect>
                <rect id="Rectangle" fill="#F26672" x="37" y="15" width="9" height="8" rx="1"></rect>
                <rect id="Rectangle" fill="#35E3C0" x="26" y="25" width="9" height="8" rx="1"></rect>
                <rect id="Rectangle" fill="#1181B9" x="37" y="25" width="9" height="8" rx="1"></rect>
                <rect id="Rectangle" fill="#35E3C0" x="48" y="15" width="9" height="8" rx="1"></rect>
                <rect id="Rectangle" fill="#F26672" x="48" y="25" width="9" height="8" rx="1"></rect>
            </g>
        </g>
    </g>
</svg>